<svg
xmlns="http://www.w3.org/2000/svg"
style="
width: 100px;
height: 20px;
vertical-align: top;
margin-left: 4%;
"
fill="none"
viewBox="0 0 120 24"
>
<defs>
<style>
.cls-1 {
text-decoration: none;
font-size: 26px;
font-family: -apple-system, BlinkMacSystemFont, Roboto,
AppleSDGothicNeo-Regular, NanumBarunGothic, NanumGothic,
'나눔고딕', 'Segoe UI', Helveica, Arial, Malgun Gothic,
Dotum, sans-serif;
font-weight: 700;
font-style: italic;
}
</style>
</defs>
<text
id="SNKRS98"
class="cls-1"
fill="black"
transform="translate(0 20) scale(0.82 1)"
>
SNKRS98
</text>
<!-- BETA TEXT
<g clip-path="url(#clip0)">
<path
fill="#F15746"
fill-rule="evenodd"
d="M105.724 9.58c.154-.394.249-.811.285-1.247.041-.57-.048-1.019-.255-1.344-.22-.325-.57-.485-1.056-.479-.124 0-.267.031-.427.08a1.93 1.93 0 00-.385.166 3.08 3.08 0 00-.315.215 3.364 3.364 0 00-.225.184h-.03l.89-3.014-.042-.074-2.236.043-.1.356c.112.013.207.025.296.043.083.019.16.05.22.086a.415.415 0 01.136.166.695.695 0 01.021.332c-.003.016-.007.035-.009.055a.8.8 0 01-.036.153l-1.435 5.187a1.8 1.8 0 00.961.908c.154.061.332.104.528.129.195.018.35.03.45.03a2.893 2.893 0 001.181-.257c.361-.166.682-.4.955-.7.26-.288.474-.626.628-1.019zm-1.204-1.69c.006.135.006.277-.006.436-.023.387-.083.73-.16 1.037a5.002 5.002 0 01-.344.896c-.13.264-.285.473-.462.639-.178.16-.362.245-.552.245a.505.505 0 01-.285-.067.645.645 0 01-.166-.203.71.71 0 01-.095-.245c-.012-.08-.017-.154-.012-.233l.724-2.689c.113-.123.231-.233.368-.325a.735.735 0 01.415-.141.54.54 0 01.314.08.521.521 0 01.184.227.958.958 0 01.077.343zm2.93 3.462c.243.104.534.154.866.147a2.378 2.378 0 001.252-.38 3.386 3.386 0 001.037-.994l-.284-.289c-.238.32-.469.552-.712.7-.243.147-.528.22-.854.227-.19 0-.338-.037-.457-.123a.73.73 0 01-.255-.338 1.82 1.82 0 01-.089-.448c-.012-.171-.017-.331-.012-.472.315-.043.582-.086.801-.135a7.4 7.4 0 00.801-.233c.397-.13.717-.32.961-.571.243-.252.379-.553.403-.903.03-.362-.083-.632-.326-.816-.243-.184-.617-.27-1.115-.264-.427 0-.819.092-1.181.264a2.82 2.82 0 00-.919.67c-.261.282-.468.6-.617.963a3.637 3.637 0 00-.267 1.105c-.023.3-.006.57.06.816.065.245.166.46.314.644.154.184.35.332.593.43zm2.017-4.29c.077.147.101.356.083.626a1.55 1.55 0 01-.196.663 1.14 1.14 0 01-.48.41c-.095.05-.226.093-.392.13-.16.037-.326.067-.492.092.101-.614.261-1.123.48-1.528.22-.406.439-.608.653-.608a.36.36 0 01.344.215zm3.042 4.358c-.332.006-.593-.086-.783-.27-.184-.185-.267-.424-.249-.713.006-.116.024-.233.048-.337l.016-.072c.021-.093.046-.205.079-.34l.711-2.559-.765.006.137-.497.777-.006.409-1.46 1.352-.013-.403 1.46 1.133-.011-.137.497-1.127.012-.7 2.56-.022.083c-.019.071-.04.15-.061.242a2.99 2.99 0 00-.047.251c-.012.184.018.307.101.38.083.068.213.105.391.105.089 0 .208-.018.362-.061s.261-.074.326-.098l-.124.435c-.255.13-.505.227-.76.301a2.443 2.443 0 01-.664.104zm5.047-.78h.036c.053.209.16.374.32.491.16.129.386.19.67.19.22 0 .41-.036.582-.104s.397-.166.682-.295l.124-.435-.013.005c-.048.018-.121.047-.224.08a.952.952 0 01-.285.056c-.178 0-.296-.03-.367-.098-.072-.068-.095-.19-.083-.375.006-.074.029-.19.065-.337.035-.154.071-.277.101-.375L120 6.486l-.053-.074-1.305.32a1.08 1.08 0 00-.439-.27 2.056 2.056 0 00-.653-.093 2.155 2.155 0 00-.996.264 3.11 3.11 0 00-.86.694 4.017 4.017 0 00-.623 1.018 3.854 3.854 0 00-.296 1.234c-.042.571.047 1.02.267 1.344.219.326.569.485 1.055.48.155 0 .303-.026.433-.075.131-.049.255-.104.38-.178.142-.085.255-.165.35-.245.095-.08.19-.166.296-.264zm.761-3.283c.005.09.01.17.004.233l-.735 2.602a1.77 1.77 0 01-.362.325.682.682 0 01-.385.135.542.542 0 01-.315-.08.52.52 0 01-.183-.227 1.026 1.026 0 01-.078-.337 2.88 2.88 0 010-.436 5.87 5.87 0 01.178-1.013c.095-.331.208-.62.344-.871.137-.258.291-.46.457-.614.166-.153.338-.233.522-.233.119 0 .219.018.297.061a.426.426 0 01.183.19.516.516 0 01.072.246l.001.019z"
clip-rule="evenodd"
></path>
</g>
-->
</svg>