<svg xmlns="http://www.w3.org/2000/svg" xmlns:xlink="http://www.w3.org/1999/xlink" version="1.1">
<defs>
<clipPath id="clip0"><path fill="#fff" d="M0 0h120v16.271H0z" transform="translate(0 4)"/></clipPath>
</defs>
<svg xmlns="http://www.w3.org/2000/svg" id="i-arr-down-gray" fill="none" viewBox="0 0 16 16"><path stroke="#BBB" stroke-width="1.5" d="M12 6l-4 4-4-4"/></svg>
<svg xmlns="http://www.w3.org/2000/svg" id="i-arr-lg-down" fill="none" viewBox="0 0 33 32"><path stroke="#BBB" stroke-width="1.5" d="M24.5 12l-8 8-8-8"/></svg>
<svg xmlns="http://www.w3.org/2000/svg" id="i-arr-lg-up" fill="none" viewBox="0 0 33 32"><path stroke="#BBB" stroke-width="1.5" d="M8.5 20l8-8 8 8"/></svg>
<svg xmlns="http://www.w3.org/2000/svg" id="i-arr-page-first" fill="none" viewBox="0 0 19 18"><path stroke="#222" d="M9.5 13.5L5 9l4.5-4.5"/><path stroke="#222" d="M13.25 13.5L8.75 9l4.5-4.5"/></svg>
<svg xmlns="http://www.w3.org/2000/svg" id="i-arr-page-last" fill="none" viewBox="0 0 19 18"><path stroke="#222" d="M9.5 4.5L14 9l-4.5 4.5"/><path stroke="#222" d="M5.75 4.5l4.5 4.5-4.5 4.5"/></svg>
<svg xmlns="http://www.w3.org/2000/svg" id="i-arr-page-next" fill="none" viewBox="0 0 19 18"><path stroke="#222" d="M7.25 4.5l4.5 4.5-4.5 4.5"/></svg>
<svg xmlns="http://www.w3.org/2000/svg" id="i-arr-page-prev" fill="none" viewBox="0 0 17 18"><path stroke="#222" d="M10.5 13.5L6.5 9l4-4.5"/></svg>
<svg xmlns="http://www.w3.org/2000/svg" id="i-arr-right-gray" fill="none" viewBox="0 0 20 20"><path stroke="#BBB" stroke-width="1.5" d="M7.5 5l5 5-5 5"/></svg>
<svg xmlns="http://www.w3.org/2000/svg" id="i-arr-up-gray" fill="none" viewBox="0 0 16 16"><path stroke="#BBB" stroke-width="1.5" d="M4 10l4-4 4 4"/></svg>
<svg xmlns="http://www.w3.org/2000/svg" id="i-brand-adidas" fill="none" viewBox="0 0 135 20"><path fill="#333" d="M16.671 11.774l.01-.088c.101-1.124.114-2.026.037-2.887-.235-2.669-1.3-5.502-2.726-7.258-.157-.192-.482-.541-.504-.541-.008 0-.104.095-.215.21-1.484 1.561-2.677 4.472-2.984 7.284-.065.587-.07.712-.07 1.634 0 .907.006 1.06.058 1.445l.024.191c0 .005.995.009 2.341.01h4.03zm-6.924-.007c0-.004-.04-.072-.089-.152-.255-.415-.792-1.12-1.224-1.604C6.77 8.145 4.232 6.637 1.958 6.167a7.227 7.227 0 00-.894-.131l-.038-.005-.01.08a8.231 8.231 0 00-.008.886c.055 1.035.285 2.092.712 3.267.145.4.321.82.573 1.364l.068.146h4.814c1.488 0 2.572-.003 2.572-.007zm14.87.007l.127-.276c.93-2.029 1.348-3.835 1.239-5.361-.004-.066-.013-.105-.021-.105l-.127.013c-1.077.097-2.309.489-3.54 1.121-.835.43-1.531.88-2.245 1.453-.777.62-1.403 1.255-2.086 2.112a9.267 9.267 0 00-.679.981l-.034.062h7.366zm-1.168 1.971l.073-.082c.085-.093.248-.317.349-.475.075-.121.247-.43.247-.445h-.021c-.305-.005-3.755-.008-8.271-.009H2.857l.016.035c.059.139.22.398.465.745l.162.231h19.95zm-1.833 1.97l.117-.073c.327-.209.657-.516.87-.812l.034-.048h-11.98c-3.663.002-6.329.007-6.329.01 0 .02.283.333.467.515.1.1.246.232.324.295l.142.114h16.355zm-9.884 3.125l.008-.27c.02-.522-.021-1.484-.076-1.847l-.008-.048h-3.33a104.28 104.28 0 00-1.734.01c0 .006.071.064.16.128 1.363.998 2.897 1.688 4.322 1.942.156.027.363.056.586.078l.072.008zm1.757.16l.146-.167a10.528 10.528 0 001.418-2.146c0-.005-.423-.01-1.062-.011h-1.013c-.626 0-1.08.004-1.08.008 0 .04.42.767.634 1.1.287.447.525.758.799 1.049l.158.167zm1.699-.157l.049-.006a8.063 8.063 0 00.875-.127c1.163-.243 2.351-.745 3.48-1.472.29-.187.778-.533.78-.554 0-.004-.637-.007-1.538-.008h-3.49l-.014.086c-.082.485-.118.936-.133 1.669l-.01.412z"/></svg>
<svg xmlns="http://www.w3.org/2000/svg" id="i-brand-converse" fill="none" viewBox="0 0 135 20"><path fill="#333" fill-rule="evenodd" d="M84.712 5l2.133.005 2.479 2.724c1.364 1.496 2.479 2.747 2.479 2.776 0 .033-1.115 1.28-2.479 2.776L86.85 16h-4.29l.09-.104c.047-.056 1.17-1.289 2.487-2.738 2.13-2.342 2.394-2.649 2.337-2.72a632.307 632.307 0 00-2.478-2.733c-1.331-1.459-2.422-2.667-2.422-2.681 0-.012.669-.02 1.572-.023L84.712 5zm-22.246.845c.349-.057 1.694-.01 2.077.076.812.174 1.402.415 2.001.812.185.122.331.25.326.278-.019.076-1.326 1.624-1.374 1.624-.018 0-.207-.094-.424-.207a6.256 6.256 0 00-.836-.364c-.392-.132-.514-.151-.968-.156-.59-.005-.77.057-.902.312-.09.174-.066.472.053.604.127.142.594.321 1.232.477 1.996.477 2.865.897 3.328 1.61.326.51.434 1.128.311 1.817a2.525 2.525 0 01-.651 1.313 3.023 3.023 0 01-1.232.812c-.647.245-1.152.311-2.092.283-1.416-.047-2.516-.378-3.54-1.072-.595-.4-.614-.292.189-1.241l.698-.822.298.208a6.18 6.18 0 001.558.732c.547.146 1.553.15 1.87.004.362-.165.476-.538.25-.807-.166-.198-.478-.316-1.577-.6-1.115-.287-1.464-.4-1.898-.618-.723-.359-1.105-.765-1.322-1.397-.156-.454-.147-1.209.023-1.705a2.5 2.5 0 01.742-1.142c.453-.42 1.076-.699 1.86-.831zm-47.388-.023l.199.004c1.945.071 3.65 1.294 4.296 3.083 1.03 2.847-.925 5.873-3.999 6.19-2.474.254-4.773-1.478-5.16-3.886-.085-.505-.038-1.464.09-1.936.279-1.005 1-2.025 1.86-2.62a5.323 5.323 0 011.992-.788c.227-.038.595-.057.92-.043l-.198-.004zM5.05 5.873a5.019 5.019 0 013.682.84c.35.241 1.143 1.03 1.138 1.134 0 .033-.458.368-1.02.75l-1.02.694-.311-.32c-.878-.898-2.125-.992-3.102-.237a2.492 2.492 0 00-.736 1.02c-.374 1.067.141 2.228 1.222 2.738.321.156.416.18.803.194.736.033 1.194-.142 1.756-.675l.359-.34 1.015.699c.557.382 1.02.717 1.03.74.023.076-.846.93-1.167 1.143a5.112 5.112 0 01-3.3.845c-1.142-.099-2.148-.543-2.95-1.312-.997-.95-1.45-1.992-1.45-3.314 0-.661.085-1.133.307-1.676.614-1.52 2.072-2.658 3.744-2.923zm18.507.166l.269.344c.151.194 1.006 1.303 1.903 2.474l1.628 2.125.048-4.92h2.313l.014 4.377.01 4.38h-1.355l-1.36-.004-3.494-4.872-.014 2.44-.01 2.437h-2.313V6.039h2.36zm10.117 0l.147.458c1.747 5.613 1.822 5.844 1.95 5.858.118.015.127-.004.274-.472.08-.269.523-1.685.981-3.153l.831-2.668 1.337-.014c1.047-.01 1.33 0 1.33.047 0 .033-.637 2.007-1.41 4.381l-1.413 4.32-1.926.014-1.93.01-1.422-4.353c-.783-2.398-1.411-4.372-1.402-4.395.01-.02.614-.033 1.336-.033h1.317zm15.085 0v2.36h-4.674v.944h4.202v2.101h-4.179l-.028 1.062h4.679v2.314h-7.035V9.708c.003-2.045.017-3.624.033-3.636.013-.018 1.357-.031 3.064-.033h3.938zm1.988.028c.019-.019 1.142-.028 2.492-.014 2.696.019 2.677.019 3.31.325.647.317 1.204.94 1.43 1.601.227.661.17 1.464-.15 2.115-.152.307-.643.864-.954 1.076l-.137.1.883 1.746c.486.959.882 1.757.882 1.775 0 .014-.59.029-1.307.024h-1.313l-.755-1.539c-.581-1.18-.78-1.544-.864-1.577-.062-.024-.354-.042-.652-.042h-.538v3.163h-2.36V9.955c.002-2.164.015-3.87.033-3.888zm24.98-.028v2.36h-4.674v.944h4.201v2.101h-4.178l-.028 1.062h4.678v2.314h-7.034l.001-5.355c.003-1.926.016-3.381.032-3.393.013-.018 1.357-.031 3.064-.033h3.938zm6.68 1.35l.014 1.19.01 1.19 1.109.358c.609.194 1.11.364 1.11.378 0 .01-.501.179-1.11.377l-1.11.36-.01 1.184-.013 1.19-.68-.958c-.373-.53-.699-.95-.732-.94-.373.137-2.115.699-2.129.69-.005-.01.293-.44.666-.959.382-.529.665-.958.646-.991-.019-.029-.33-.454-.689-.94-.359-.49-.647-.897-.637-.906.01-.01.505.141 1.1.335l1.086.35.085-.105c.051-.056.358-.486.684-.953l.6-.85zM15.905 8.394c-.335-.127-1.058-.165-1.383-.07a2.273 2.273 0 00-1.615 1.808c-.194 1.142.595 2.27 1.747 2.511 1.123.236 2.285-.472 2.582-1.572.109-.4.08-1.029-.066-1.407a2.337 2.337 0 00-1.265-1.27zm37.17 0v.95h1.28c.843-.002.938-.015 1.071-.095.274-.17.307-.491.076-.713-.118-.113-.132-.113-1.275-.127l-1.152-.015z" clip-rule="evenodd"/></svg>
<svg xmlns="http://www.w3.org/2000/svg" id="i-brand-jordan" fill="none" viewBox="0 0 135 20"><path fill="#333" d="M13.336.034a1.17 1.17 0 00-.846.872c-.07.308.002.687.217 1.142.076.162.16.373.185.467.056.196.056.2-.1.868-.061.257-.085.322-.12.333-.042.015-.066.08-.202.576-.043.157-.073.303-.066.322.006.018-.033.127-.089.244-.097.199-.103.22-.105.406a.95.95 0 01-.058.34c-.03.08-.101.305-.157.501l-.102.358-.166.176a1.367 1.367 0 00-.183.225c-.006.024-.019.046-.028.046-.034-.003-.133-.205-.133-.273 0-.087-.05-.13-.179-.152-.052-.011-.095-.035-.114-.068a.194.194 0 00-.078-.065.81.81 0 01-.178-.14c-.179-.168-.284-.207-.56-.207-.196 0-.228.007-.355.068a1.23 1.23 0 00-.267.185c-.261.24-.37.5-.354.83.011.234.076.36.293.578l.16.16-.035.104a.69.69 0 01-.454.442.515.515 0 00-.246.146c-.105.107-.377.545-.549.894a1.57 1.57 0 01-.185.292c-.101.11-.218.33-.267.493a.606.606 0 01-.144.24c-.35.386-.739 1.022-.98 1.604-.052.127-.108.198-.343.454-.273.296-.284.303-.516.42-.19.094-.278.125-.44.153a2.829 2.829 0 01-.301.033c-.123 0-.16.021-.149.089.005.044.026.057.114.078.255.066.578.055.797-.028.104-.037-.039.07-.19.144-.113.057-.157.09-.16.124-.007.04.008.053.081.074.084.026.11.022.373-.063.155-.048.286-.085.29-.08.007.004-.013.043-.039.085-.062.104-.051.196.026.204.08.01.177-.045.248-.141.207-.273.254-.295.373-.17.172.18.538.19.538.013 0-.076-.03-.103-.134-.122-.144-.029-.163-.072-.159-.37.002-.24.009-.278.073-.44.039-.097.13-.267.205-.38.125-.192.15-.216.37-.369.448-.31.694-.597.905-1.057.084-.183.1-.205.172-.23a.443.443 0 00.248-.22c.025-.06.034-.065.105-.052l.08.018a4.296 4.296 0 00.258.405c.056.072.073.118.073.186 0 .089.028.15.121.253.03.034.06.115.082.222.017.091.051.222.075.292l.041.124-.105.131c-.059.074-.106.14-.106.148 0 .007-.037.02-.082.029-.26.041-.349.244-.349.793v.268l-.105.105a.728.728 0 01-.177.13c-.258.096-.267.103-.338.208a.849.849 0 01-.194.194c-.398.28-.934.832-1.206 1.242-.105.157-.112.162-.213.177a.877.877 0 00-.47.25.893.893 0 01-.243.175 7.955 7.955 0 00-1.584.924c-.326.249-.56.46-.946.855-.353.362-.383.396-.375.457.01.053-.002.077-.053.118l-.063.05-.05-.045c-.092-.088-.18-.055-.258.1-.036.076-.092.137-.12.137-.037 0-.086-.1-.108-.218-.028-.15-.073-.222-.136-.213-.075.01-.097.109-.051.233.02.059.036.135.036.172 0 .035.015.1.035.146l.032.08-.067-.014c-.099-.022-.215.071-.215.176 0 .07-.009.08-.112.129a.56.56 0 01-.153.054c-.024 0-.142.035-.267.079a2.62 2.62 0 01-.465.109c-.276.037-.334.06-.489.2-.097.09-.114.116-.123.2-.008.088-.002.114.076.23.146.22.297.372.43.44.106.052.149.061.306.061.17 0 .194-.006.345-.085.174-.094.23-.1.54-.068.112.011.188.01.241-.008.082-.029.252-.199.252-.253 0-.018.013-.033.03-.033.018 0 .06-.048.1-.109.053-.085.088-.113.152-.135.104-.03.18-.105.248-.238.047-.093.162-.216.203-.216.01 0 .036-.03.058-.067.045-.079.221-.194.297-.194a.57.57 0 00.191-.098c.123-.085.15-.094.196-.076.106.041.153.023.315-.114.336-.285.99-.76 1.186-.859a11.13 11.13 0 001.6-1.007c.143-.107.282-.192.41-.244a17.39 17.39 0 001.593-.796c.48-.28 1.228-.665 1.294-.665.03 0 .127.04.211.085.177.099.394.18.67.253.194.05 1.092.41 1.555.62.273.126.517.2.846.261.388.074.717.157.775.196.03.022.151.09.27.153.223.115.512.32 1.126.798.407.318.551.414.697.457.072.02.227.125.506.34.222.17.435.323.474.338a.462.462 0 00.162.031c.11 0 .183.055.441.318.093.096.198.199.233.23.036.03.088.095.116.145.03.05.112.153.185.227a.814.814 0 01.172.246c.06.17.227.45.283.473.064.03.187-.041.413-.242.207-.183.45-.364.618-.458.209-.117.493-.322.685-.492.347-.31.683-.654.683-.7 0-.026-.037-.08-.084-.124-.153-.14-.328-.137-.569.009-.366.22-.306.204-.874.2a6.216 6.216 0 01-.513-.015c-.015-.015.149-.253.233-.338a.687.687 0 01.192-.122c.094-.041.118-.061.118-.103 0-.045-.006-.05-.108-.043a.484.484 0 00-.34.155c-.058.054-.116.089-.149.089-.03 0-.07.022-.094.046a.397.397 0 01-.112.078c-.078.033-.108.022-.237-.074-.052-.04-.088-.052-.13-.043-.043.008-.077-.005-.133-.05-.073-.062-.073-.062-.045-.149a.297.297 0 00.021-.109.866.866 0 00-.161-.128 6.963 6.963 0 01-.463-.375c-1.017-.892-2.601-2.039-2.94-2.128a1.398 1.398 0 00-.15-.033c-.013 0-.106-.08-.205-.18a6.003 6.003 0 00-.805-.676 9.774 9.774 0 00-.68-.373l-.49-.242.028-.055c.121-.24-.006-.481-.353-.675-.135-.077-.137-.079-.215-.27l-.08-.197.037-.159c.108-.451.116-.556.116-1.26-.002-.894-.008-.935-.215-1.352a2.702 2.702 0 01-.293-.937c-.032-.222-.004-.388.12-.708.128-.319.175-.537.194-.846.007-.135.028-.288.046-.338.017-.05.038-.17.05-.266.01-.113.044-.25.098-.392.043-.12.112-.367.15-.545.061-.29.079-.336.137-.395.075-.078.097-.148.146-.488.024-.177.03-.312.022-.458-.018-.233.05-.953.105-1.14a.544.544 0 00-.002-.366c-.045-.112-.026-.129.138-.129.142 0 .4-.085.549-.183.062-.04.161-.126.224-.194.196-.218.286-.464.286-.785 0-.449-.239-.835-.635-1.029a1.105 1.105 0 00-.77-.085z"/></svg>
<svg xmlns="http://www.w3.org/2000/svg" id="i-brand-newbalance" fill="none" viewBox="0 0 135 20"><path fill="#333" d="M6.874 17.787l-.12.213H1l5.874-.213zM26.782 2.04c3.29.007 3.995 1.97 3.573 3.89-.466 2.114-2.824 3.643-4.18 3.954 2.429.79 2.429 2.372 1.92 4.123-.501 1.726-3.142 3.891-6.112 3.953l-.129.001H10.46l-.015-.34 3.495-.126c.063 0 .07-.067.036-.087l-.015-.005-3.53-.196-.028-.79 4.23-.15c.075 0 .071-.075.034-.095l-.014-.004-4.271-.238-.022-.718 4.97-.174c.077 0 .067-.08.029-.101l-.014-.005-5.013-.279-.028-.654 5.74-.204c.069 0 .06-.067.027-.087l-.013-.005-5.775-.32-.022-.586 6.482-.23c.076 0 .055-.075.024-.095l-.01-.005-12.2-.677 12.878-.458c.096-.007.064-.083.02-.102l-.013-.004-12.2-.678 12.899-.466c.076 0 .072-.074.03-.09l-.016-.002-12.2-.677 12.877-.46c.077 0 .09-.08.036-.096l-.021-.002-12.2-.678 12.856-.43c.077 0 .078-.064.032-.082l-.018-.004-4.193-.233.43-.745 4.463-.159c.077 0 .09-.07.022-.088l-.022-.004-4.187-.24.424-.754 4.462-.156c.082 0 .09-.063.024-.081l-.024-.004-4.2-.234.415-.72 4.47-.148c.043 0 .059-.06.024-.079l-.018-.005-4.207-.249.43-.753 4.462-.15c.063 0 .07-.055.036-.067l-.015-.003-4.236-.224.24-.425h8.466zM7.584 16.55l-.303.52-5.586-.311 5.889-.21zm.688-1.24l-.29.518-5.591-.31 5.88-.207zm.703-1.244l-.29.52-5.599-.31 5.889-.21zM22.123 10.8h-2.598l-1.977 3.502h3.502c2.457 0 3.756-3.502 1.073-3.502zM9.677 12.83l-.296.52-5.578-.31 5.874-.21zm14.267-7.48h-1.327L20.95 8.286h2.598c1.073 0 1.92-1.073 2.033-1.497.113-.423.056-1.383-1.638-1.44zm-9.162 1.252l.021.684-7.519-.417 7.498-.267zm-.048-1.225l.022.623-6.757-.387 6.735-.236zm-.048-1.182l.03.532-6.03-.335 6-.197zm-.04-1.213l.02.487-5.28-.311 5.26-.176zM14.612 2l.006.243L10.037 2h4.575z"/></svg>
<svg xmlns="http://www.w3.org/2000/svg" id="i-brand-nike" fill="none" viewBox="0 0 135 20"><path fill="#333" d="M4.446 5.19C2.017 8.046 1.01 10.05 1 12.003c0 1.06.211 1.698.768 2.336 1.18 1.346 3.34 1.522 6.287.52.979-.333 24.187-10.476 24.331-10.633.067-.069.038-.079-.096-.04-1.478.433-22.844 6.196-23.352 6.304-2.054.403-3.475-.039-4.176-1.315-.566-1.031-.422-2.534.423-4.291.22-.462.374-.864.355-.884-.02-.03-.518.51-1.094 1.188z"/></svg>
<svg xmlns="http://www.w3.org/2000/svg" id="i-brand-other" fill="none" viewBox="0 0 137 20"><path fill="#333" d="M5.224 15c1.955 0 3.168-1.01 3.168-2.622 0-1.18-.883-2.088-2.095-2.183v-.114c.94-.14 1.657-.984 1.657-1.956 0-1.415-1.06-2.285-2.838-2.285H1.111V15h4.113zM3.028 7.262h1.6c.913 0 1.44.445 1.44 1.194 0 .761-.565 1.193-1.6 1.193h-1.44V7.262zm0 6.31v-2.66H4.69c1.13 0 1.746.457 1.746 1.314 0 .876-.597 1.346-1.702 1.346H3.028zM9.94 15h1.848v-3.91c0-.984.691-1.587 1.7-1.587.3 0 .73.05.877.101V7.98c-.159-.05-.47-.082-.724-.082-.889 0-1.612.527-1.796 1.225h-.115v-1.11H9.94V15zm7.453.108c.907 0 1.669-.387 2.03-1.035h.115V15h1.79v-4.773c0-1.492-1.047-2.368-2.9-2.368-1.76 0-2.946.806-3.067 2.088h1.701c.153-.438.597-.673 1.264-.673.761 0 1.18.35 1.18.953v.577l-1.695.102c-1.739.101-2.71.838-2.71 2.1 0 1.277.946 2.102 2.292 2.102zm.609-1.352c-.641 0-1.092-.324-1.092-.863 0-.515.387-.813 1.18-.864l1.416-.095v.52c0 .737-.647 1.302-1.504 1.302zM23.144 15h1.847v-4.043c0-.946.527-1.556 1.384-1.556.875 0 1.288.515 1.288 1.498V15h1.847v-4.52c0-1.669-.838-2.621-2.393-2.621-1.035 0-1.745.489-2.07 1.276h-.113V8.01h-1.79V15zm10.67.108c.971 0 1.765-.45 2.14-1.206h.113V15h1.79V5.339H36.01v3.79h-.108c-.361-.775-1.142-1.232-2.088-1.232-1.758 0-2.85 1.377-2.85 3.6 0 2.227 1.085 3.61 2.85 3.61zm.628-5.713c.984 0 1.587.806 1.587 2.114 0 1.307-.596 2.107-1.587 2.107-.99 0-1.58-.793-1.58-2.114 0-1.314.596-2.107 1.58-2.107z"/></svg>
<svg xmlns="http://www.w3.org/2000/svg" id="i-ico-alert-circle" fill="none" viewBox="0 0 24 24"><path stroke="#000" stroke-linecap="round" stroke-linejoin="round" stroke-width="1.5" d="M12 22c5.523 0 10-4.477 10-10S17.523 2 12 2 2 6.477 2 12s4.477 10 10 10z"/><path stroke="#000" stroke-linecap="round" stroke-linejoin="round" stroke-width="2" d="M12 8v4m0 4h.01"/></svg>
<svg xmlns="http://www.w3.org/2000/svg" id="i-ico-apple" fill="none" viewBox="0 0 24 24"><path fill="#000" d="M17.599 12.625c.027 3.026 2.654 4.032 2.683 4.046-.023.07-.419 1.436-1.384 2.844-.834 1.219-1.698 2.432-3.062 2.458-1.339.024-1.769-.794-3.3-.794-1.53 0-2.008.77-3.276.82-1.315.05-2.316-1.317-3.158-2.53-1.716-2.487-3.028-7.02-1.265-10.08.875-1.519 2.44-2.48 4.138-2.506 1.29-.024 2.51.87 3.3.87.788 0 2.27-1.076 3.829-.916.651.027 2.481.264 3.656 1.983-.096.058-2.184 1.274-2.161 3.805zM15.08 5.193c.699-.845 1.169-2.021 1.04-3.193-1.006.04-2.224.671-2.945 1.516-.647.747-1.214 1.946-1.061 3.094 1.122.085 2.268-.572 2.966-1.417z"/></svg>
<svg xmlns="http://www.w3.org/2000/svg" id="i-ico-arr-way-left" fill="none" viewBox="0 0 24 24"><path stroke="#000" stroke-linecap="round" stroke-linejoin="round" d="M21 12H3m7 7l-7-7 7-7"/></svg>
<svg xmlns="http://www.w3.org/2000/svg" id="i-ico-arr-way-right" fill="none" viewBox="0 0 24 24"><path stroke="#000" stroke-linecap="round" stroke-linejoin="round" d="M3 12h18m-7-7l7 7-7 7"/></svg>
<svg xmlns="http://www.w3.org/2000/svg" id="i-ico-check-active" fill="none" viewBox="0 0 24 24"><path fill="#000" d="M0 0h24v24H0z"/><path stroke="#fff" stroke-width="1.5" d="M18.4 7.2L9.6 16l-4-4"/></svg>
<svg xmlns="http://www.w3.org/2000/svg" id="i-ico-check-inactive" fill="none" viewBox="0 0 24 24"><path stroke="#D3D3D3" d="M.5.5h23v23H.5z"/><path stroke="#EBEBEB" stroke-width="1.5" d="M18.4 7.2L9.6 16l-4-4"/></svg>
<svg xmlns="http://www.w3.org/2000/svg" id="i-ico-check-s" fill="none" viewBox="0 0 24 24"><path stroke="#222" stroke-width="1.5" d="M18.4 7.2L9.6 16l-4-4"/></svg>
<svg xmlns="http://www.w3.org/2000/svg" id="i-ico-detail-empty" fill="none" viewBox="0 0 24 24"><path stroke="#222" stroke-linecap="round" stroke-linejoin="round" stroke-miterlimit="10" d="M2.578 12.935l4.835-4.648 4.841 4.648 7.665-7.368"/><path stroke="#222" stroke-linecap="round" stroke-linejoin="round" stroke-miterlimit="10" d="M15.988 5.283h4.162v4.081M2.289 18.717h19.422"/></svg>
<svg xmlns="http://www.w3.org/2000/svg" id="i-ico-eye-off" fill="none" viewBox="0 0 24 24"><path stroke="#222" d="M12 6.5a9.258 9.258 0 00-5.155 1.552A9.053 9.053 0 003.542 12a9.053 9.053 0 003.303 3.948A9.258 9.258 0 0012 17.5a9.258 9.258 0 005.155-1.552A9.053 9.053 0 0020.458 12a9.058 9.058 0 00-3.302-3.948A9.267 9.267 0 0012 6.5z"/><path fill="#222" d="M12 15.5c-1.932 0-3.5-1.568-3.5-3.5s1.568-3.5 3.5-3.5 3.5 1.568 3.5 3.5-1.568 3.5-3.5 3.5z"/><path fill="#222" stroke="#fff" stroke-width=".75" d="M4.575 3.338L3.338 4.575l16.087 16.087 1.237-1.237L4.575 3.338z"/></svg>
<svg xmlns="http://www.w3.org/2000/svg" id="i-ico-eye-on" viewBox="0 0 24 24" fill="none"><path d="M12 6.5a9.265 9.265 0 00-5.155 1.552A9.061 9.061 0 003.542 12a9.06 9.06 0 003.303 3.948A9.265 9.265 0 0012 17.5a9.265 9.265 0 005.155-1.552A9.061 9.061 0 0020.459 12a9.06 9.06 0 00-3.302-3.948A9.265 9.265 0 0012 6.5z" stroke="#222"/><path d="M12 15.5A3.501 3.501 0 018.5 12c0-1.932 1.568-3.5 3.5-3.5s3.5 1.568 3.5 3.5-1.568 3.5-3.5 3.5z" fill="#222"/></svg>
<svg xmlns="http://www.w3.org/2000/svg" id="i-ico-facebook" fill="none" viewBox="0 0 24 24"><path fill="#000" d="M22 12.061C22 6.505 17.523 2 12 2S2 6.505 2 12.061c0 5.022 3.657 9.184 8.438 9.939v-7.03h-2.54v-2.91h2.54V9.845c0-2.522 1.492-3.915 3.777-3.915 1.094 0 2.238.197 2.238.197v2.476h-1.26c-1.243 0-1.63.775-1.63 1.57v1.888h2.773l-.443 2.908h-2.33V22c4.78-.755 8.437-4.917 8.437-9.939z"/></svg>
<svg xmlns="http://www.w3.org/2000/svg" id="i-ico-filter-off" fill="none" viewBox="0 0 24 24"><path fill="#000" fill-rule="evenodd" d="M8 6a1 1 0 11-2 0 1 1 0 012 0zm.937.5H22v-1H8.937a2 2 0 00-3.874 0H2v1h3.063a2 2 0 003.874 0zM7 16a2 2 0 00-1.937 1.5H2v1h3.063a2 2 0 003.874 0H22v-1H8.937A2 2 0 007 16zm0 1a1 1 0 110 2 1 1 0 010-2zm8.063-5.5a2 2 0 013.874 0H22v1h-3.063a2 2 0 01-3.874 0H2v-1h13.063zM18 12a1 1 0 10-2 0 1 1 0 002 0z" clip-rule="evenodd"/></svg>
<svg xmlns="http://www.w3.org/2000/svg" id="i-ico-filter-on" fill="none" viewBox="0 0 24 24"><path stroke="#000" d="M2 6h4m2 0h14"/><path fill="#EF6253" d="M7 8a2 2 0 10.001-3.999A2 2 0 007 8z"/><path stroke="#000" d="M2 18h4m2 0h14"/><path fill="#EF6253" d="M7 20a2 2 0 10.001-3.999A2 2 0 007 20z"/><path stroke="#000" d="M2 12h14m2 0h4"/><path fill="#EF6253" d="M17 14a2 2 0 10.001-3.999A2 2 0 0017 14z"/></svg>
<svg xmlns="http://www.w3.org/2000/svg" id="i-ico-filter-updown-gray" fill="none" viewBox="0 0 20 20"><path fill="#BBB" fill-rule="evenodd" d="M5.48 16.186l.354.354.353-.354 3.334-3.333-.708-.707-2.48 2.48V4.166h-1v10.46l-2.48-2.48-.706.707 3.333 3.333zm9.04-12.372l-.354-.354-.353.354-3.334 3.333.708.707 2.48-2.48v10.46h1V5.374l2.48 2.48.706-.707-3.333-3.333z" clip-rule="evenodd"/></svg>
<svg xmlns="http://www.w3.org/2000/svg" id="i-ico-filter-updown" fill="none" viewBox="0 0 24 24"><path fill="#000" fill-rule="evenodd" d="M6.646 19.354l.354.353.354-.353 4-4-.708-.707L7.5 17.793V5h-1v12.793l-3.146-3.146-.708.707 4 4zM17.354 4.646L17 4.293l-.354.353-4 4 .708.708L16.5 6.207V19h1V6.207l3.146 3.147.708-.708-4-4z" clip-rule="evenodd"/></svg>
<svg xmlns="http://www.w3.org/2000/svg" id="i-ico-google" fill="none" viewBox="0 0 24 24"><path fill="#000" d="M3.946 2l9.62 9.354 2.637-2.584L4.541 2.178A1.261 1.261 0 003.946 2zm-.808.435c-.09.161-.138.344-.138.53v18.178a.95.95 0 00.084.396l9.842-9.572-9.788-9.532zm13.865 6.783l-2.816 2.745 2.816 2.732 3.442-1.931c.488-.279.56-.631.555-.818-.005-.31-.204-.596-.542-.775-.293-.148-2.47-1.392-3.455-1.953zm-3.442 3.358L3.861 22c.174-.004.347-.052.498-.135l8.065-4.568 3.788-2.136-2.651-2.585z"/></svg>
<svg xmlns="http://www.w3.org/2000/svg" id="i-ico-instagram" fill="none" viewBox="0 0 24 24"><path fill="#000" d="M12 3.802c2.67 0 2.986.01 4.04.058.976.045 1.505.207 1.858.344.466.182.8.398 1.15.748.35.35.566.683.747 1.15.137.353.3.882.345 1.857.048 1.054.058 1.37.058 4.04 0 2.671-.01 2.987-.058 4.042-.045.975-.208 1.504-.345 1.857a3.1 3.1 0 01-.748 1.15 3.09 3.09 0 01-1.15.747c-.352.137-.881.3-1.856.345-1.055.048-1.371.058-4.041.058-2.67 0-2.987-.01-4.041-.058-.975-.045-1.504-.208-1.857-.345a3.092 3.092 0 01-1.15-.748 3.092 3.092 0 01-.748-1.15c-.137-.352-.3-.881-.344-1.856-.048-1.055-.058-1.371-.058-4.041 0-2.67.01-2.986.058-4.041.045-.975.207-1.504.344-1.857.182-.467.398-.8.748-1.15.35-.35.683-.567 1.15-.748.353-.137.882-.3 1.857-.344 1.055-.048 1.37-.058 4.04-.058zM12 2c-2.716 0-3.057.012-4.123.06-1.064.049-1.791.218-2.428.465a4.901 4.901 0 00-1.77 1.154 4.888 4.888 0 00-1.154 1.77c-.247.637-.416 1.364-.465 2.428C2.012 8.943 2 9.284 2 12s.012 3.056.06 4.123c.049 1.064.218 1.79.465 2.427a4.896 4.896 0 001.154 1.771 4.91 4.91 0 001.77 1.154c.637.247 1.364.416 2.428.465 1.067.048 1.407.06 4.123.06s3.057-.012 4.123-.06c1.064-.049 1.792-.218 2.428-.465a4.901 4.901 0 001.77-1.154 4.884 4.884 0 001.154-1.77c.247-.637.417-1.364.465-2.428.049-1.067.06-1.407.06-4.123s-.011-3.057-.06-4.123c-.048-1.064-.218-1.792-.465-2.428a4.885 4.885 0 00-1.153-1.77 4.887 4.887 0 00-1.771-1.154c-.637-.247-1.364-.416-2.428-.465C15.056 2.012 14.716 2 12 2z"/><path fill="#000" d="M12 6.865a5.135 5.135 0 100 10.27 5.135 5.135 0 000-10.27zm0 8.468a3.333 3.333 0 110-6.667 3.333 3.333 0 010 6.667zm5.338-7.471a1.2 1.2 0 100-2.4 1.2 1.2 0 000 2.4z"/></svg>
<svg xmlns="http://www.w3.org/2000/svg" id="i-ico-minus" fill="none" viewBox="0 0 24 24"><path stroke="#000" stroke-linejoin="round" stroke-width="2" d="M5 12h14"/></svg>
<svg xmlns="http://www.w3.org/2000/svg" id="i-ico-nav-close" fill="none" viewBox="0 0 18 18"><path fill="#BBB" fill-rule="evenodd" d="M8.47 9l-5.735 5.735.53.53L9 9.53l5.735 5.735.53-.53L9.53 9l5.735-5.735-.53-.53L9 8.47 3.265 2.735l-.53.53L8.47 9z" clip-rule="evenodd"/></svg>
<svg xmlns="http://www.w3.org/2000/svg" id="i-ico-plus" fill="none" viewBox="0 0 24 24"><path stroke="#000" stroke-linejoin="round" stroke-width="1.5" d="M12 5v14"/><path stroke="#000" stroke-width="1.5" d="M5 12h14"/></svg>
<svg xmlns="http://www.w3.org/2000/svg" id="i-ico-radio-active" fill="none" viewBox="0 0 24 24"><circle cx="12" cy="12" r="9.5" fill="#fff" stroke="#222"/></svg>
<svg xmlns="http://www.w3.org/2000/svg" id="i-ico-radio-inactive" fill="none" viewBox="0 0 24 24"><circle cx="12" cy="12" r="9.5" fill="#fff" stroke="#D3D3D3"/></svg>
<svg xmlns="http://www.w3.org/2000/svg" id="i-ico-rotate" fill="none" viewBox="0 0 24 24"><path stroke="#000" stroke-linejoin="round" d="M20 5v6h-6"/><path stroke="#000" d="M17.992 14.332a7.037 7.037 0 01-2.806 3.499 7.35 7.35 0 01-4.405 1.157 7.316 7.316 0 01-4.237-1.649 6.97 6.97 0 01-2.366-3.793 6.818 6.818 0 01.454-4.414A7.081 7.081 0 017.724 5.87a7.373 7.373 0 014.489-.8 7.272 7.272 0 014.082 1.982L20 10.442"/></svg>
<svg xmlns="http://www.w3.org/2000/svg" id="i-ico-shoppingbag" fill="none" viewBox="0 0 24 24"><path stroke="#222" stroke-linecap="round" stroke-linejoin="round" d="M6 2L3 6v14c0 .53.21 1.04.586 1.414C3.96 21.79 4.47 22 5 22h14c.53 0 1.04-.21 1.414-.586C20.79 21.04 21 20.53 21 20V6l-3-4H6zM3 6h18"/><path stroke="#222" stroke-linejoin="round" d="M16 10a4 4 0 11-8 0"/></svg>
<svg xmlns="http://www.w3.org/2000/svg" id="i-ico-top" fill="none" viewBox="0 0 24 24"><path fill="#222" fill-rule="evenodd" d="M6.597 4C6.267 4 6 4.224 6 4.5s.267.5.597.5h11.146c.33 0 .597-.224.597-.5s-.267-.5-.597-.5H6.597zm11.345 9.063a.5.5 0 01-.707 0L12.67 8.497v11.374a.5.5 0 01-1 0V8.497l-4.565 4.566a.5.5 0 01-.708-.707l5.42-5.419.006-.007a.513.513 0 01.344-.14h.006a.498.498 0 01.351.147l5.42 5.42a.501.501 0 010 .706z" clip-rule="evenodd"/></svg>
<svg xmlns="http://www.w3.org/2000/svg" id="i-ico-user" fill="none" viewBox="0 0 24 24"><path stroke="#222" d="M20 21v-2a4 4 0 00-4-4H8a4 4 0 00-4 4v2"/><path stroke="#222" stroke-linecap="round" stroke-linejoin="round" d="M12 11c2.21 0 4-1.79 4-4s-1.79-4-4-4-4 1.79-4 4 1.79 4 4 4z"/></svg>
<svg xmlns="http://www.w3.org/2000/svg" id="i-ico-wish-off" fill="none" viewBox="0 0 24 24"><path stroke="#222" d="M5 3.5h14v17.367l-6.326-5.77a1.003 1.003 0 00-1.348 0L5 20.868V3.5z"/></svg>
<svg xmlns="http://www.w3.org/2000/svg" id="i-ico-wish-on" fill="none" viewBox="0 0 24 24"><path fill="#222" stroke="#222" d="M5 3.5h14v17.367l-6.326-5.77a1.003 1.003 0 00-1.348 0L5 20.868V3.5z"/></svg>
<svg xmlns="http://www.w3.org/2000/svg" id="i-ico-social-comment" viewBox="0 0 30 30" fill="none"><path fill-rule="evenodd" clip-rule="evenodd" d="M14.5 1.5c-7.18 0-13 5.82-13 13s5.82 13 13 13c3.097 0 5.942-1.083 8.175-2.891l4.694 1.76-1.858-4.955A12.94 12.94 0 0027.5 14.5c0-7.18-5.82-13-13-13z" fill="#fff"/><path fill-rule="evenodd" clip-rule="evenodd" d="M22.675 24.609A12.946 12.946 0 0114.5 27.5c-7.18 0-13-5.82-13-13s5.82-13 13-13 13 5.82 13 13c0 2.54-.729 4.911-1.99 6.914l1.859 4.955-4.694-1.76zm4.493-3.049A14.44 14.44 0 0029 14.5C29 6.492 22.508 0 14.5 0S0 6.492 0 14.5 6.492 29 14.5 29c3.14 0 6.049-1 8.423-2.696l3.92 1.47a1.5 1.5 0 001.93-1.932l-1.605-4.282z" fill="#222"/></svg>
<svg xmlns="http://www.w3.org/2000/svg" id="i-ico-social-reaction" viewBox="0 0 30 30" fill="none"><path d="M30 15c0 8.284-6.716 15-15 15-8.284 0-15-6.716-15-15C0 6.716 6.716 0 15 0c8.284 0 15 6.716 15 15z" fill="#fff"/><path fill-rule="evenodd" clip-rule="evenodd" d="M28.6 15c0 7.511-6.089 13.6-13.6 13.6-7.511 0-13.6-6.089-13.6-13.6C1.4 7.489 7.489 1.4 15 1.4c7.511 0 13.6 6.089 13.6 13.6zm1.4 0c0 8.284-6.716 15-15 15-8.284 0-15-6.716-15-15C0 6.716 6.716 0 15 0c8.284 0 15 6.716 15 15zm-19.5-2a1.5 1.5 0 100-3 1.5 1.5 0 000 3zM21 11.5a1.5 1.5 0 11-3 0 1.5 1.5 0 013 0zM9.716 17.777a.75.75 0 00-1.432.445c.343 1.105 1.223 2.228 2.376 3.069 1.165.849 2.675 1.459 4.34 1.459s3.175-.61 4.34-1.46c1.154-.84 2.033-1.963 2.376-3.067a.75.75 0 10-1.432-.445c-.224.721-.864 1.598-1.828 2.3-.952.695-2.159 1.172-3.456 1.172-1.297 0-2.504-.477-3.456-1.171-.964-.703-1.603-1.58-1.828-2.302z" fill="#222"/></svg>
<svg xmlns="http://www.w3.org/2000/svg" id="i-info-circle" fill="none" viewBox="0 0 20 20"><path fill="#BBB" fill-rule="evenodd" d="M18.333 10A8.333 8.333 0 0110 18.333 8.333 8.333 0 011.667 10 8.333 8.333 0 0110 1.667 8.333 8.333 0 0118.333 10zm-8.48 3.438A.781.781 0 109.852 15h.113a.78.78 0 000-1.562h-.113zm-2.71-5.235c-.069.388.26.71.653.71s.696-.325.789-.707c.06-.249.155-.463.286-.644.25-.341.633-.512 1.15-.512a1.259 1.259 0 01.775.312c.125.109.23.255.312.438.092.175.138.387.138.637 0 .209-.03.388-.088.538-.05.15-.125.287-.225.412-.091.117-.2.225-.325.325l-.375.325a3.684 3.684 0 00-.437.438 2.073 2.073 0 00-.3.5 2.863 2.863 0 00-.214.925c-.03.372.279.675.651.675.373 0 .66-.306.73-.672l.02-.09c.059-.209.138-.388.238-.538.1-.158.217-.3.35-.425.133-.125.28-.254.437-.387l.4-.35c.134-.126.25-.263.35-.413.109-.158.192-.342.25-.55.067-.217.1-.47.1-.763 0-.4-.07-.758-.212-1.075a2.156 2.156 0 00-.588-.787 2.359 2.359 0 00-.862-.488 3.144 3.144 0 00-1.063-.175 3.34 3.34 0 00-1.25.225 2.714 2.714 0 00-.95.613 2.782 2.782 0 00-.74 1.503z" clip-rule="evenodd"/></svg>
<svg xmlns="http://www.w3.org/2000/svg" id="i-logo-app" fill="none" viewBox="0 0 40 40"><rect width="40" height="40" fill="#000" rx="12"/><path fill="#fff" d="M10.861 17.567l.223-.718H9.627l-1.7 1.71h-1.03l.534-1.71H5.867l-1.492 4.79h1.564l.534-1.712h1.314l.532 1.711h1.279l.222-.718-.572-1.813 1.613-1.54zm4.785-.718h-3.844l-1.492 4.79h1.563l.528-1.712h.782l1.035 1.711h1.315l.223-.718-.695-.993c.518-.075 1.015-.328 1.26-1.142l.215-.705c.03-.095.052-.184.06-.274a.86.86 0 00-.002-.204c-.06-.446-.422-.753-.948-.753zm-.887 1.916h-1.99l.192-.616h1.99l-.192.616zm4.234-.616h2.55l.645-.48.257-.82h-4.62l-1.491 4.79h4.619l.403-1.3H18.31l.15-.48h3.046l.383-1.23h-3.046l.15-.48zm5.935-1.3l-3.082 4.071-.223.718h1.6l.47-.718h2.132l.027.718h1.456l.223-.718-.542-4.071h-2.06zm-.389 2.84l1.03-1.472h.072l.106 1.47H24.54v.002zm9.345-2.84l-1.922 2.23h-.22l-.533-2.23h-1.74l-1.264 4.071-.228.718h1.575l.813-2.619h.11l.369 1.901h.87l1.551-1.9h.112l-.819 2.618h1.575l.22-.718 1.272-4.071h-1.741z"/></svg>
<svg xmlns="http://www.w3.org/2000/svg" id="i-logo-kream" fill="none" viewBox="0 0 120 24"><g clip-path="url(#clip0)"><path fill="#222" d="M20.503 6.443L21.21 4H16.6l-5.374 5.812H7.971L9.661 4h-4.94L0 20.271h4.94l1.69-5.812h4.158l1.679 5.812h4.045l.7-2.437-1.803-6.162 5.094-5.23zM35.633 4H23.48l-4.72 16.271h4.94l1.672-5.812h2.474l3.273 5.812h4.158l.706-2.443-2.2-3.37c1.636-.257 3.214-1.116 3.985-3.885l.676-2.393c.095-.325.166-.626.19-.927a3.374 3.374 0 00-.006-.7C38.438 5.043 37.294 4 35.633 4zm-2.806 6.512h-6.292l.605-2.093h6.292l-.605 2.093zM46.214 8.42h8.06l2.04-1.633L57.12 4H42.526l-4.721 16.271h14.602l1.28-4.413h-9.631l.474-1.626h9.626l1.216-4.186H45.74l.475-1.627zM64.973 4l-9.738 13.834-.706 2.443h5.053l1.489-2.443h6.737l.083 2.443h4.602l.706-2.443L71.491 4h-6.518zm-1.228 9.649l3.256-4.997h.226l.338 4.997h-3.82zM93.287 4l-6.073 7.58h-.7L84.836 4h-5.504l-3.998 13.834-.723 2.437h4.982l2.568-8.893h.35l1.162 6.456h2.752l4.905-6.456h.356l-2.592 8.893h4.982l.694-2.437L98.79 4h-5.503z"/><path fill="#F15746" fill-rule="evenodd" d="M105.724 9.58c.154-.394.249-.811.285-1.247.041-.57-.048-1.019-.255-1.344-.22-.325-.57-.485-1.056-.479-.124 0-.267.031-.427.08a1.93 1.93 0 00-.385.166 3.08 3.08 0 00-.315.215 3.364 3.364 0 00-.225.184h-.03l.89-3.014-.042-.074-2.236.043-.1.356c.112.013.207.025.296.043.083.019.16.05.22.086a.415.415 0 01.136.166.695.695 0 01.021.332c-.003.016-.007.035-.009.055a.8.8 0 01-.036.153l-1.435 5.187a1.8 1.8 0 00.961.908c.154.061.332.104.528.129.195.018.35.03.45.03a2.893 2.893 0 001.181-.257c.361-.166.682-.4.955-.7.26-.288.474-.626.628-1.019zm-1.204-1.69c.006.135.006.277-.006.436-.023.387-.083.73-.16 1.037a5.002 5.002 0 01-.344.896c-.13.264-.285.473-.462.639-.178.16-.362.245-.552.245a.505.505 0 01-.285-.067.645.645 0 01-.166-.203.71.71 0 01-.095-.245c-.012-.08-.017-.154-.012-.233l.724-2.689c.113-.123.231-.233.368-.325a.735.735 0 01.415-.141.54.54 0 01.314.08.521.521 0 01.184.227.958.958 0 01.077.343zm2.93 3.462c.243.104.534.154.866.147a2.378 2.378 0 001.252-.38 3.386 3.386 0 001.037-.994l-.284-.289c-.238.32-.469.552-.712.7-.243.147-.528.22-.854.227-.19 0-.338-.037-.457-.123a.73.73 0 01-.255-.338 1.82 1.82 0 01-.089-.448c-.012-.171-.017-.331-.012-.472.315-.043.582-.086.801-.135a7.4 7.4 0 00.801-.233c.397-.13.717-.32.961-.571.243-.252.379-.553.403-.903.03-.362-.083-.632-.326-.816-.243-.184-.617-.27-1.115-.264-.427 0-.819.092-1.181.264a2.82 2.82 0 00-.919.67c-.261.282-.468.6-.617.963a3.637 3.637 0 00-.267 1.105c-.023.3-.006.57.06.816.065.245.166.46.314.644.154.184.35.332.593.43zm2.017-4.29c.077.147.101.356.083.626a1.55 1.55 0 01-.196.663 1.14 1.14 0 01-.48.41c-.095.05-.226.093-.392.13-.16.037-.326.067-.492.092.101-.614.261-1.123.48-1.528.22-.406.439-.608.653-.608a.36.36 0 01.344.215zm3.042 4.358c-.332.006-.593-.086-.783-.27-.184-.185-.267-.424-.249-.713.006-.116.024-.233.048-.337l.016-.072c.021-.093.046-.205.079-.34l.711-2.559-.765.006.137-.497.777-.006.409-1.46 1.352-.013-.403 1.46 1.133-.011-.137.497-1.127.012-.7 2.56-.022.083c-.019.071-.04.15-.061.242a2.99 2.99 0 00-.047.251c-.012.184.018.307.101.38.083.068.213.105.391.105.089 0 .208-.018.362-.061s.261-.074.326-.098l-.124.435c-.255.13-.505.227-.76.301a2.443 2.443 0 01-.664.104zm5.047-.78h.036c.053.209.16.374.32.491.16.129.386.19.67.19.22 0 .41-.036.582-.104s.397-.166.682-.295l.124-.435-.013.005c-.048.018-.121.047-.224.08a.952.952 0 01-.285.056c-.178 0-.296-.03-.367-.098-.072-.068-.095-.19-.083-.375.006-.074.029-.19.065-.337.035-.154.071-.277.101-.375L120 6.486l-.053-.074-1.305.32a1.08 1.08 0 00-.439-.27 2.056 2.056 0 00-.653-.093 2.155 2.155 0 00-.996.264 3.11 3.11 0 00-.86.694 4.017 4.017 0 00-.623 1.018 3.854 3.854 0 00-.296 1.234c-.042.571.047 1.02.267 1.344.219.326.569.485 1.055.48.155 0 .303-.026.433-.075.131-.049.255-.104.38-.178.142-.085.255-.165.35-.245.095-.08.19-.166.296-.264zm.761-3.283c.005.09.01.17.004.233l-.735 2.602a1.77 1.77 0 01-.362.325.682.682 0 01-.385.135.542.542 0 01-.315-.08.52.52 0 01-.183-.227 1.026 1.026 0 01-.078-.337 2.88 2.88 0 010-.436 5.87 5.87 0 01.178-1.013c.095-.331.208-.62.344-.871.137-.258.291-.46.457-.614.166-.153.338-.233.522-.233.119 0 .219.018.297.061a.426.426 0 01.183.19.516.516 0 01.072.246l.001.019z" clip-rule="evenodd"/></g></svg>
<svg xmlns="http://www.w3.org/2000/svg" id="i-logo-naver" fill="none" viewBox="0 0 20 18"><path fill="#fff" d="M0 0v18h6.5V8.5L13 18h7V0h-7v8.5L7 0H0z"/></svg>
<svg xmlns="http://www.w3.org/2000/svg" id="i-slide-arr-left" fill="none" viewBox="0 0 44 44"><path stroke="#D3D3D3" stroke-width="1.5" d="M27.5 33l-11-11 11-11"/></svg>
<svg xmlns="http://www.w3.org/2000/svg" id="i-slide-arr-lg-left-dark" fill="none" viewBox="0 0 80 80"><path stroke="#BBB" stroke-width="1.5" d="M50 60L30 40l20-20"/></svg>
<svg xmlns="http://www.w3.org/2000/svg" id="i-slide-arr-lg-left" fill="none" viewBox="0 0 80 80"><path stroke="#fff" stroke-width="1.5" d="M50 60L30 40l20-20"/></svg>
<svg xmlns="http://www.w3.org/2000/svg" id="i-slide-arr-lg-right-dark" fill="none" viewBox="0 0 80 80"><path stroke="#BBB" stroke-width="1.5" d="M30 20l20 20-20 20"/></svg>
<svg xmlns="http://www.w3.org/2000/svg" id="i-slide-arr-lg-right" fill="none" viewBox="0 0 80 80"><path stroke="#fff" stroke-width="1.5" d="M30 20l20 20-20 20"/></svg>
<svg xmlns="http://www.w3.org/2000/svg" id="i-slide-arr-md-left" fill="none" viewBox="0 0 44 44"><path stroke="#BBB" stroke-width="1.5" d="M27.5 33l-11-11 11-11"/></svg>
<svg xmlns="http://www.w3.org/2000/svg" id="i-slide-arr-md-right" fill="none" viewBox="0 0 44 44"><path stroke="#BBB" stroke-width="1.5" d="M16.5 11l11 11-11 11"/></svg>
<svg xmlns="http://www.w3.org/2000/svg" id="i-slide-arr-right" fill="none" viewBox="0 0 44 44"><path stroke="#D3D3D3" stroke-width="1.5" d="M16.5 11l11 11-11 11"/></svg>
<svg xmlns="http://www.w3.org/2000/svg" id="i-wish-s-off" fill="none" viewBox="0 0 16 16"><path stroke="#222" d="M3.5 2.5h9v11.034l-3.826-3.49a1 1 0 00-1.348 0L3.5 13.534V2.5z"/></svg>
<svg xmlns="http://www.w3.org/2000/svg" id="i-wish-s-on" fill="none" viewBox="0 0 16 16"><path fill="#222" stroke="#222" d="M3.5 2.5h9v11.034l-3.826-3.49a1 1 0 00-1.348 0L3.5 13.534V2.5z"/></svg>
</svg>